<?xml version="1.0" encoding="UTF-8"?>
<svg version="1.1" xmlns="http://www.w3.org/2000/svg" width="512" height="512">
<path d="M0 0 C0.97249695 0.00215515 1.9449939 0.0043103 2.94696045 0.00653076 C16.95150669 0.05634441 30.56437475 0.43079689 44.3125 3.3125 C45.30169434 3.50585938 46.29088867 3.69921875 47.31005859 3.8984375 C72.98542387 8.97320849 101.54959193 17.22202225 123.26107788 32.36965942 C128.22773998 35.19278744 133.24707687 34.8617447 138.828125 34.81079102 C139.96882446 34.81630981 141.10952393 34.82182861 142.28479004 34.82751465 C144.75376669 34.83681843 147.22279134 34.83695331 149.69177246 34.82892036 C153.60107362 34.81628154 157.50966969 34.82758918 161.41894531 34.84495544 C169.01205162 34.875703 176.60502409 34.87727942 184.19818115 34.87530518 C194.52003273 34.87381534 204.84168207 34.89053267 215.16345215 34.93144035 C219.01175186 34.94127654 222.85971503 34.9325625 226.70800781 34.92274475 C229.07096578 34.92888939 231.43392192 34.93580127 233.796875 34.94360352 C235.39770935 34.93202461 235.39770935 34.93202461 237.03088379 34.92021179 C242.89331566 34.96013154 247.21607841 35.30294952 252.3125 38.3125 C255.75052491 41.90063758 256.81264134 44.11485276 256.81586456 49.06750488 C256.82629555 50.22389717 256.83672654 51.38028946 256.84747362 52.57172394 C256.83855073 53.83776207 256.82962785 55.1038002 256.82043457 56.40820312 C256.82504389 57.77014584 256.83139702 59.13208359 256.83934355 60.49401093 C256.85605611 64.23571579 256.84778201 67.97701307 256.83539867 71.71871948 C256.82635829 75.75423965 256.84031286 79.78968913 256.85131836 83.82519531 C256.86911903 91.73041721 256.86525673 99.63548733 256.8536678 107.54071522 C256.84463982 113.96457479 256.84340671 120.38839177 256.84776306 126.81225586 C256.84837599 127.726004 256.84898893 128.63975215 256.84962043 129.58118963 C256.85089931 131.43736332 256.85219617 133.29353699 256.8535108 135.14971066 C256.86492113 152.56128049 256.85179579 169.97276614 256.83030933 187.38432217 C256.81243794 202.32917362 256.81554192 217.27390079 256.83398438 232.21875 C256.85538309 249.56736549 256.86382245 266.91590716 256.85153532 284.264534 C256.8502611 286.11393737 256.84900362 287.96334075 256.84776306 289.81274414 C256.84714596 290.72272203 256.84652886 291.63269992 256.84589306 292.5702529 C256.84243716 298.98752709 256.84827366 305.40475453 256.85768127 311.82202148 C256.86889155 319.64093742 256.86588173 327.45969271 256.8445583 335.2785902 C256.83403472 339.26910941 256.82994812 343.25936061 256.84315491 347.24987793 C256.85505788 350.90162923 256.84855154 354.55286363 256.8272447 358.20456791 C256.82064663 360.15413779 256.83373355 362.10374344 256.84747362 364.05327606 C256.83704263 365.20966835 256.82661164 366.36606064 256.81586456 367.55749512 C256.81521515 368.55534782 256.81456574 369.55320053 256.81389666 370.5812912 C256.16836805 374.09761584 254.7916846 375.77953271 252.3125 378.3125 C249.50712697 379.24762434 247.83084636 379.43432907 244.93286133 379.42602539 C244.05217484 379.42594986 243.17148834 379.42587433 242.26411438 379.42579651 C240.84367073 379.41805458 240.84367073 379.41805458 239.39453125 379.41015625 C238.42215012 379.4087413 237.44976898 379.40732635 236.44792175 379.40586853 C233.34024996 379.40026817 230.23265004 379.38771562 227.125 379.375 C225.01888125 379.36998505 222.91276137 379.36542213 220.80664062 379.36132812 C215.64189936 379.35029862 210.47721187 379.33303375 205.3125 379.3125 C205.02060791 380.08126465 204.72871582 380.8500293 204.42797852 381.64208984 C202.14208456 387.11442692 197.95757974 391.6660407 194.3125 396.3125 C193.59578125 397.22644531 192.8790625 398.14039063 192.140625 399.08203125 C155.62088055 444.59842808 105.60452839 474.03450637 48.75 486.5 C48.05543701 486.65509033 47.36087402 486.81018066 46.64526367 486.9699707 C31.39029342 490.14989464 16.15449746 490.68701585 0.625 490.625 C-0.34749695 490.62284485 -1.3199939 490.6206897 -2.32196045 490.61846924 C-16.32650669 490.56865559 -29.93937475 490.19420311 -43.6875 487.3125 C-44.67669434 487.11914062 -45.66588867 486.92578125 -46.68505859 486.7265625 C-84.64691502 479.22334976 -120.34129045 463.4304482 -150.6875 439.3125 C-151.58339844 438.60867188 -152.47929687 437.90484375 -153.40234375 437.1796875 C-173.12133628 421.39317698 -191.31269768 402.86613826 -204.6875 381.3125 C-204.6875 380.6525 -204.6875 379.9925 -204.6875 379.3125 C-205.99420654 379.32821045 -207.30091309 379.3439209 -208.6472168 379.36010742 C-213.50197164 379.4144672 -218.35669964 379.44887226 -223.21166992 379.47729492 C-225.31165086 379.49236772 -227.4116004 379.51282941 -229.51147461 379.53881836 C-232.53246824 379.57526754 -235.55304511 379.59224159 -238.57421875 379.60546875 C-239.51085861 379.62095261 -240.44749847 379.63643646 -241.41252136 379.65238953 C-246.30680841 379.653649 -249.7675304 379.59570864 -253.6875 376.3125 C-255.94617065 372.92449402 -255.93980164 371.77661078 -255.94756222 367.80638409 C-255.95462781 366.65459059 -255.9616934 365.5027971 -255.9689731 364.31610078 C-255.96655802 363.04491908 -255.96414293 361.77373739 -255.96165466 360.46403503 C-255.96610511 359.1045349 -255.97141851 357.74503736 -255.97752339 356.38554364 C-255.99173721 352.64136611 -255.99336604 348.89727146 -255.99292648 345.15307081 C-255.99457172 341.1181887 -256.00763272 337.08334104 -256.01911926 333.04847717 C-256.04199116 324.22208768 -256.0498922 315.3957222 -256.05494571 306.56930709 C-256.05820015 301.06001346 -256.06472108 295.55072683 -256.0719471 290.04143715 C-256.09151578 274.79329624 -256.10791845 259.54516184 -256.11082363 244.29700756 C-256.11110499 242.83271209 -256.11110499 242.83271209 -256.11139202 241.3388349 C-256.11175828 239.3597697 -256.11212198 237.3807045 -256.11248314 235.40163931 C-256.11266595 234.41920331 -256.11284876 233.43676732 -256.11303711 232.42456055 C-256.11321766 231.44092804 -256.11339821 230.45729553 -256.11358423 229.44385598 C-256.11712669 213.50158524 -256.14415234 197.55944951 -256.181535 181.61722561 C-256.21959193 165.25677487 -256.23898092 148.89639117 -256.23928314 132.53589517 C-256.2398683 123.34714234 -256.2483977 114.15855055 -256.27728081 104.9698391 C-256.30175978 97.1461413 -256.30910125 89.32266328 -256.29403328 81.49893757 C-256.28685002 77.5062122 -256.28778211 73.5139211 -256.31044388 69.52124405 C-256.33099073 65.8662052 -256.32847482 62.21193566 -256.30756903 58.55690555 C-256.30240578 56.60795277 -256.32188672 54.65898287 -256.34223074 52.71012944 C-256.25096663 43.2513046 -256.25096663 43.2513046 -253.3128109 39.57122135 C-247.36056082 34.45012337 -241.06035827 35.07351011 -233.6027832 35.21582031 C-231.30495953 35.24161416 -229.00713326 35.26717695 -226.70930481 35.2925415 C-225.49357096 35.30944283 -224.2778371 35.32634415 -223.02526283 35.34375763 C-217.2018621 35.41582755 -211.3783714 35.43388227 -205.55460393 35.45679808 C-196.63884827 35.49228498 -187.72456131 35.5423181 -178.80981445 35.68603516 C-138.35780074 37.53307062 -138.35780074 37.53307062 -102.26043701 22.01437378 C-97.59052863 18.92545454 -92.37222712 17.12932122 -87.125 15.25 C-86.08255127 14.87597549 -85.04010254 14.50195099 -83.96606445 14.11659241 C-72.21424034 9.96543473 -60.29152234 6.79253961 -48.125 4.125 C-47.43043701 3.96990967 -46.73587402 3.81481934 -46.02026367 3.6550293 C-30.76529342 0.47510536 -15.52949746 -0.06201585 0 0 Z " fill="#5DC1D7" transform="translate(255.6875,10.6875)"/>
<path d="M0 0 C0.97249695 0.00215515 1.9449939 0.0043103 2.94696045 0.00653076 C16.95150669 0.05634441 30.56437475 0.43079689 44.3125 3.3125 C45.30169434 3.50585938 46.29088867 3.69921875 47.31005859 3.8984375 C72.98542387 8.97320849 101.54959193 17.22202225 123.26107788 32.36965942 C128.22773998 35.19278744 133.24707687 34.8617447 138.828125 34.81079102 C139.96882446 34.81630981 141.10952393 34.82182861 142.28479004 34.82751465 C144.75376669 34.83681843 147.22279134 34.83695331 149.69177246 34.82892036 C153.60107362 34.81628154 157.50966969 34.82758918 161.41894531 34.84495544 C169.01205162 34.875703 176.60502409 34.87727942 184.19818115 34.87530518 C194.52003273 34.87381534 204.84168207 34.89053267 215.16345215 34.93144035 C219.01175186 34.94127654 222.85971503 34.9325625 226.70800781 34.92274475 C229.07096578 34.92888939 231.43392192 34.93580127 233.796875 34.94360352 C235.39770935 34.93202461 235.39770935 34.93202461 237.03088379 34.92021179 C242.89331566 34.96013154 247.21607841 35.30294952 252.3125 38.3125 C255.75052491 41.90063758 256.81264134 44.11485276 256.81586456 49.06750488 C256.82629555 50.22389717 256.83672654 51.38028946 256.84747362 52.57172394 C256.83855073 53.83776207 256.82962785 55.1038002 256.82043457 56.40820312 C256.82504389 57.77014584 256.83139702 59.13208359 256.83934355 60.49401093 C256.85605611 64.23571579 256.84778201 67.97701307 256.83539867 71.71871948 C256.82635829 75.75423965 256.84031286 79.78968913 256.85131836 83.82519531 C256.86911903 91.73041721 256.86525673 99.63548733 256.8536678 107.54071522 C256.84463982 113.96457479 256.84340671 120.38839177 256.84776306 126.81225586 C256.84837599 127.726004 256.84898893 128.63975215 256.84962043 129.58118963 C256.85089931 131.43736332 256.85219617 133.29353699 256.8535108 135.14971066 C256.86492113 152.56128049 256.85179579 169.97276614 256.83030933 187.38432217 C256.81243794 202.32917362 256.81554192 217.27390079 256.83398438 232.21875 C256.85538309 249.56736549 256.86382245 266.91590716 256.85153532 284.264534 C256.8502611 286.11393737 256.84900362 287.96334075 256.84776306 289.81274414 C256.84714596 290.72272203 256.84652886 291.63269992 256.84589306 292.5702529 C256.84243716 298.98752709 256.84827366 305.40475453 256.85768127 311.82202148 C256.86889155 319.64093742 256.86588173 327.45969271 256.8445583 335.2785902 C256.83403472 339.26910941 256.82994812 343.25936061 256.84315491 347.24987793 C256.85505788 350.90162923 256.84855154 354.55286363 256.8272447 358.20456791 C256.82064663 360.15413779 256.83373355 362.10374344 256.84747362 364.05327606 C256.83704263 365.20966835 256.82661164 366.36606064 256.81586456 367.55749512 C256.81521515 368.55534782 256.81456574 369.55320053 256.81389666 370.5812912 C256.16836805 374.09761584 254.7916846 375.77953271 252.3125 378.3125 C249.50712697 379.24762434 247.83084636 379.43432907 244.93286133 379.42602539 C244.05217484 379.42594986 243.17148834 379.42587433 242.26411438 379.42579651 C240.84367073 379.41805458 240.84367073 379.41805458 239.39453125 379.41015625 C238.42215012 379.4087413 237.44976898 379.40732635 236.44792175 379.40586853 C233.34024996 379.40026817 230.23265004 379.38771562 227.125 379.375 C225.01888125 379.36998505 222.91276137 379.36542213 220.80664062 379.36132812 C215.64189936 379.35029862 210.47721187 379.33303375 205.3125 379.3125 C205.02060791 380.08126465 204.72871582 380.8500293 204.42797852 381.64208984 C202.14208456 387.11442692 197.95757974 391.6660407 194.3125 396.3125 C193.59578125 397.22644531 192.8790625 398.14039063 192.140625 399.08203125 C155.62088055 444.59842808 105.60452839 474.03450637 48.75 486.5 C48.05543701 486.65509033 47.36087402 486.81018066 46.64526367 486.9699707 C31.39029342 490.14989464 16.15449746 490.68701585 0.625 490.625 C-0.34749695 490.62284485 -1.3199939 490.6206897 -2.32196045 490.61846924 C-16.32650669 490.56865559 -29.93937475 490.19420311 -43.6875 487.3125 C-44.67669434 487.11914062 -45.66588867 486.92578125 -46.68505859 486.7265625 C-84.64691502 479.22334976 -120.34129045 463.4304482 -150.6875 439.3125 C-151.58339844 438.60867188 -152.47929687 437.90484375 -153.40234375 437.1796875 C-173.12133628 421.39317698 -191.31269768 402.86613826 -204.6875 381.3125 C-204.6875 380.6525 -204.6875 379.9925 -204.6875 379.3125 C-205.99420654 379.32821045 -207.30091309 379.3439209 -208.6472168 379.36010742 C-213.50197164 379.4144672 -218.35669964 379.44887226 -223.21166992 379.47729492 C-225.31165086 379.49236772 -227.4116004 379.51282941 -229.51147461 379.53881836 C-232.53246824 379.57526754 -235.55304511 379.59224159 -238.57421875 379.60546875 C-239.51085861 379.62095261 -240.44749847 379.63643646 -241.41252136 379.65238953 C-246.30680841 379.653649 -249.7675304 379.59570864 -253.6875 376.3125 C-255.94617065 372.92449402 -255.93980164 371.77661078 -255.94756222 367.80638409 C-255.95462781 366.65459059 -255.9616934 365.5027971 -255.9689731 364.31610078 C-255.96655802 363.04491908 -255.96414293 361.77373739 -255.96165466 360.46403503 C-255.96610511 359.1045349 -255.97141851 357.74503736 -255.97752339 356.38554364 C-255.99173721 352.64136611 -255.99336604 348.89727146 -255.99292648 345.15307081 C-255.99457172 341.1181887 -256.00763272 337.08334104 -256.01911926 333.04847717 C-256.04199116 324.22208768 -256.0498922 315.3957222 -256.05494571 306.56930709 C-256.05820015 301.06001346 -256.06472108 295.55072683 -256.0719471 290.04143715 C-256.09151578 274.79329624 -256.10791845 259.54516184 -256.11082363 244.29700756 C-256.11110499 242.83271209 -256.11110499 242.83271209 -256.11139202 241.3388349 C-256.11175828 239.3597697 -256.11212198 237.3807045 -256.11248314 235.40163931 C-256.11266595 234.41920331 -256.11284876 233.43676732 -256.11303711 232.42456055 C-256.11321766 231.44092804 -256.11339821 230.45729553 -256.11358423 229.44385598 C-256.11712669 213.50158524 -256.14415234 197.55944951 -256.181535 181.61722561 C-256.21959193 165.25677487 -256.23898092 148.89639117 -256.23928314 132.53589517 C-256.2398683 123.34714234 -256.2483977 114.15855055 -256.27728081 104.9698391 C-256.30175978 97.1461413 -256.30910125 89.32266328 -256.29403328 81.49893757 C-256.28685002 77.5062122 -256.28778211 73.5139211 -256.31044388 69.52124405 C-256.33099073 65.8662052 -256.32847482 62.21193566 -256.30756903 58.55690555 C-256.30240578 56.60795277 -256.32188672 54.65898287 -256.34223074 52.71012944 C-256.25096663 43.2513046 -256.25096663 43.2513046 -253.3128109 39.57122135 C-247.36056082 34.45012337 -241.06035827 35.07351011 -233.6027832 35.21582031 C-231.30495953 35.24161416 -229.00713326 35.26717695 -226.70930481 35.2925415 C-225.49357096 35.30944283 -224.2778371 35.32634415 -223.02526283 35.34375763 C-217.2018621 35.41582755 -211.3783714 35.43388227 -205.55460393 35.45679808 C-196.63884827 35.49228498 -187.72456131 35.5423181 -178.80981445 35.68603516 C-138.35780074 37.53307062 -138.35780074 37.53307062 -102.26043701 22.01437378 C-97.59052863 18.92545454 -92.37222712 17.12932122 -87.125 15.25 C-86.08255127 14.87597549 -85.04010254 14.50195099 -83.96606445 14.11659241 C-72.21424034 9.96543473 -60.29152234 6.79253961 -48.125 4.125 C-47.43043701 3.96990967 -46.73587402 3.81481934 -46.02026367 3.6550293 C-30.76529342 0.47510536 -15.52949746 -0.06201585 0 0 Z M-211.61690629 60.58106452 C-212.91906457 62.68700165 -213.0633531 63.92025742 -213.06502342 66.39019775 C-213.07284666 67.22336895 -213.08066991 68.05654015 -213.08873022 68.91495895 C-213.08203805 69.83021976 -213.07534589 70.74548058 -213.06845093 71.68847656 C-213.0731309 72.6608086 -213.07781087 73.63314064 -213.08263266 74.63493729 C-213.09464188 77.90780343 -213.0851022 81.18025542 -213.07568359 84.453125 C-213.07974666 86.79350022 -213.08508703 89.13387352 -213.09161377 91.47424316 C-213.10532468 97.84188004 -213.09997311 104.20937159 -213.09047651 110.57701111 C-213.08366676 116.55633008 -213.08885579 122.53563552 -213.0932581 128.51495409 C-213.10181746 141.07930679 -213.09196931 153.64359387 -213.075857 166.20793581 C-213.0624533 176.99412549 -213.06478124 187.78021832 -213.07861328 198.56640625 C-213.09465947 211.08508779 -213.10099344 223.6037118 -213.09177649 236.12240219 C-213.08702841 242.75174578 -213.08649906 249.38103531 -213.09638596 256.01037598 C-213.10502969 262.24182298 -213.09908116 268.47308645 -213.08170319 274.70451355 C-213.07772446 276.99630935 -213.07889591 279.28812051 -213.08549118 281.57991028 C-213.09364202 284.69899236 -213.08346333 287.81747965 -213.06845093 290.93652344 C-213.07514309 291.85178425 -213.08183526 292.76704506 -213.08873022 293.71004105 C-213.08090697 294.54321224 -213.07308373 295.37638344 -213.06502342 296.23480225 C-213.06453637 296.95502438 -213.06404931 297.67524651 -213.06354749 298.41729355 C-212.79071182 300.37121822 -212.79071182 300.37121822 -211.61805695 302.04393548 C-208.7019 303.96013549 -205.79539976 303.72243106 -202.42106533 303.68723011 C-201.67194182 303.69129084 -200.92281831 303.69535156 -200.15099409 303.69953534 C-197.62053183 303.7095449 -195.09061593 303.69801802 -192.56016541 303.6867218 C-190.7358375 303.68946019 -188.91151117 303.69351037 -187.08718878 303.69876546 C-182.05827102 303.70939338 -177.02952993 303.70119682 -172.00061977 303.69001496 C-166.5833977 303.68120059 -161.16619945 303.68960841 -155.74897766 303.69587708 C-145.13068822 303.7053831 -134.51246656 303.69874958 -123.89418214 303.68661413 C-111.54041253 303.6730191 -99.18665921 303.67462976 -86.83288402 303.67674746 C-64.79799922 303.67993995 -42.76314671 303.66825449 -20.72827148 303.64868164 C0.67571004 303.62967407 22.07965322 303.62259438 43.48364258 303.62817383 C66.76702368 303.6342252 90.05038812 303.63406653 113.33376783 303.622688 C115.81421657 303.62148065 118.29466532 303.62027466 120.77511406 303.61907005 C122.60596959 303.61816475 122.60596959 303.61816475 124.47381209 303.61724115 C133.09458923 303.6133543 141.71536018 303.61375857 150.33613777 303.6156559 C160.83446757 303.61777324 171.33276414 303.61258884 181.83108456 303.59804235 C187.1922484 303.5907754 192.55336373 303.58674083 197.91453171 303.59128571 C202.81509188 303.5953392 207.71555156 303.59026252 212.61609643 303.57765963 C214.39597438 303.57471311 216.17586171 303.57519146 217.95573736 303.57930271 C220.36124952 303.58435774 222.76641862 303.57729183 225.17190647 303.56697559 C225.87491559 303.57137208 226.5779247 303.57576856 227.30223712 303.58029827 C231.24978221 303.64645863 231.24978221 303.64645863 234.3125 301.3125 C234.51293214 298.17090495 234.58601524 295.11711941 234.57319641 291.97412109 C234.57702196 290.99377081 234.58084751 290.01342052 234.58478898 289.00336266 C234.59516015 285.69750072 234.59111905 282.39181113 234.5871582 279.0859375 C234.59150237 276.72438393 234.59668452 274.36283178 234.60264587 272.00128174 C234.61468122 266.24034348 234.61718355 260.47945946 234.61484561 254.71851015 C234.61306517 250.03798178 234.61480618 245.35746759 234.61907005 240.67694092 C234.61996284 239.67908351 234.61996284 239.67908351 234.62087366 238.66106737 C234.62208536 237.30980189 234.62329949 235.95853642 234.62451603 234.60727096 C234.63540085 221.9256544 234.63322452 209.24406442 234.62713119 196.56244636 C234.62196011 184.95000965 234.6332208 173.33765678 234.65222941 161.72523665 C234.67158062 149.81256499 234.67986866 137.89993305 234.67610615 125.98724556 C234.6741901 119.29475268 234.67672084 112.60233118 234.69082069 105.90985107 C234.70333956 99.61933528 234.70151155 93.32898806 234.68840981 87.03847504 C234.68603155 84.72368057 234.68882296 82.40887445 234.69703293 80.09409332 C234.7073968 76.94615577 234.69948367 73.79879484 234.6867218 70.65087891 C234.69409609 69.72424124 234.70147037 68.79760357 234.70906812 67.84288597 C234.70186158 67.00412233 234.69465503 66.1653587 234.68723011 65.30117798 C234.68731263 64.21034881 234.68731263 64.21034881 234.68739682 63.09748268 C234.4419168 60.89302792 234.4419168 60.89302792 231.3125 59.3125 C228.85850129 59.119173 226.51851395 59.04258439 224.06447601 59.05802441 C223.31734047 59.05481793 222.57020494 59.05161145 221.80042893 59.04830781 C219.27682883 59.03995361 216.75346273 59.04595089 214.2298584 59.05180359 C212.41036875 59.04878538 210.59088037 59.04489757 208.77139425 59.04021102 C203.7558484 59.02987978 198.74037362 59.03212581 193.72482181 59.03639162 C188.32189575 59.03884956 182.91898722 59.02985636 177.5160675 59.02235413 C166.9255345 59.00957943 156.33502682 59.00781685 145.7444874 59.01015439 C137.14046167 59.01193449 128.53644364 59.01019455 119.93241882 59.00592995 C118.09842632 59.00503716 118.09842632 59.00503716 116.22738346 59.00412634 C113.74388826 59.00291465 111.26039305 59.00170051 108.77689785 59.00048397 C85.466736 58.98959792 62.15658861 58.99177606 38.84642595 58.99786881 C17.49938547 59.00303991 -3.84760067 58.99177932 -25.19463307 58.97277059 C-47.09099714 58.9534215 -68.98733961 58.94513097 -90.88371229 58.94889385 C-103.18602467 58.95081022 -115.48829821 58.94827594 -127.79060364 58.93417931 C-138.26256087 58.92230184 -148.73445536 58.92081964 -159.20641339 58.93296947 C-164.55355028 58.93888359 -169.90057222 58.93988811 -175.24770164 58.92796707 C-180.13663035 58.91719381 -185.02534692 58.9201085 -189.91426533 58.93422876 C-191.68877975 58.93689947 -193.46331035 58.9344357 -195.237809 58.92649289 C-197.63862574 58.91648731 -200.03869059 58.92472148 -202.43947601 58.93776989 C-203.13825377 58.93046054 -203.83703153 58.9231512 -204.55698436 58.91562036 C-207.33945969 58.94725282 -209.25925405 59.03093275 -211.61690629 60.58106452 Z " fill="#293D7B" transform="translate(255.6875,10.6875)"/>
<path d="M0 0 C0.97249695 0.00215515 1.9449939 0.0043103 2.94696045 0.00653076 C16.95150669 0.05634441 30.56437475 0.43079689 44.3125 3.3125 C45.30169434 3.50585938 46.29088867 3.69921875 47.31005859 3.8984375 C72.98542387 8.97320849 101.54959193 17.22202225 123.26107788 32.36965942 C128.22773998 35.19278744 133.24707687 34.8617447 138.828125 34.81079102 C139.96882446 34.81630981 141.10952393 34.82182861 142.28479004 34.82751465 C144.75376669 34.83681843 147.22279134 34.83695331 149.69177246 34.82892036 C153.60107362 34.81628154 157.50966969 34.82758918 161.41894531 34.84495544 C169.01205162 34.875703 176.60502409 34.87727942 184.19818115 34.87530518 C194.52003273 34.87381534 204.84168207 34.89053267 215.16345215 34.93144035 C219.01175186 34.94127654 222.85971503 34.9325625 226.70800781 34.92274475 C229.07096578 34.92888939 231.43392192 34.93580127 233.796875 34.94360352 C235.39770935 34.93202461 235.39770935 34.93202461 237.03088379 34.92021179 C243.99934391 34.96766295 249.05717467 35.44394566 254.47182846 40.21527481 C257.26448178 44.91436208 256.85111916 49.2870387 256.79351807 54.657547 C256.79865417 56.39322685 256.79865417 56.39322685 256.80389404 58.16397095 C256.80936283 61.37822526 256.79681916 64.59183541 256.77679092 67.8060136 C256.7593259 71.32431312 256.76516924 74.84258799 256.76806259 78.360919 C256.77018945 85.19083765 256.75171828 92.02054598 256.72605728 98.85041059 C256.697264 106.75035149 256.69407868 114.65016595 256.69091797 122.5501709 C256.66991419 143.40848061 256.61406976 164.26674346 256.5625 185.125 C256.48 231.716875 256.3975 278.30875 256.3125 326.3125 C87.3525 326.3125 -81.6075 326.3125 -255.6875 326.3125 C-255.790625 279.74125 -255.89375 233.17 -256 185.1875 C-256.04552002 170.46753418 -256.09104004 155.74756836 -256.13793945 140.58154297 C-256.16052246 122.64477539 -256.16052246 122.64477539 -256.16471863 114.25515747 C-256.16938811 108.3794865 -256.18775726 102.50405226 -256.21537781 96.62844849 C-256.2471748 89.85440831 -256.26168681 83.0805958 -256.25472475 76.30648042 C-256.25170873 72.84012935 -256.25653477 69.37428731 -256.28357565 65.90802932 C-256.30834835 62.19753481 -256.30248735 58.48832385 -256.28877258 54.77780151 C-256.30333591 53.69445086 -256.31789923 52.6111002 -256.33290386 51.49492073 C-256.25171896 43.3550452 -256.25171896 43.3550452 -253.31365204 39.6814785 C-247.45071344 34.39268513 -241.07432781 35.07324353 -233.6027832 35.21582031 C-231.30495953 35.24161416 -229.00713326 35.26717695 -226.70930481 35.2925415 C-225.49357096 35.30944283 -224.2778371 35.32634415 -223.02526283 35.34375763 C-217.2018621 35.41582755 -211.3783714 35.43388227 -205.55460393 35.45679808 C-196.63884827 35.49228498 -187.72456131 35.5423181 -178.80981445 35.68603516 C-138.35780074 37.53307062 -138.35780074 37.53307062 -102.26043701 22.01437378 C-97.59052863 18.92545454 -92.37222712 17.12932122 -87.125 15.25 C-86.08255127 14.87597549 -85.04010254 14.50195099 -83.96606445 14.11659241 C-72.21424034 9.96543473 -60.29152234 6.79253961 -48.125 4.125 C-47.43043701 3.96990967 -46.73587402 3.81481934 -46.02026367 3.6550293 C-30.76529342 0.47510536 -15.52949746 -0.06201585 0 0 Z M-211.61690629 60.58106452 C-212.91906457 62.68700165 -213.0633531 63.92025742 -213.06502342 66.39019775 C-213.07284666 67.22336895 -213.08066991 68.05654015 -213.08873022 68.91495895 C-213.08203805 69.83021976 -213.07534589 70.74548058 -213.06845093 71.68847656 C-213.0731309 72.6608086 -213.07781087 73.63314064 -213.08263266 74.63493729 C-213.09464188 77.90780343 -213.0851022 81.18025542 -213.07568359 84.453125 C-213.07974666 86.79350022 -213.08508703 89.13387352 -213.09161377 91.47424316 C-213.10532468 97.84188004 -213.09997311 104.20937159 -213.09047651 110.57701111 C-213.08366676 116.55633008 -213.08885579 122.53563552 -213.0932581 128.51495409 C-213.10181746 141.07930679 -213.09196931 153.64359387 -213.075857 166.20793581 C-213.0624533 176.99412549 -213.06478124 187.78021832 -213.07861328 198.56640625 C-213.09465947 211.08508779 -213.10099344 223.6037118 -213.09177649 236.12240219 C-213.08702841 242.75174578 -213.08649906 249.38103531 -213.09638596 256.01037598 C-213.10502969 262.24182298 -213.09908116 268.47308645 -213.08170319 274.70451355 C-213.07772446 276.99630935 -213.07889591 279.28812051 -213.08549118 281.57991028 C-213.09364202 284.69899236 -213.08346333 287.81747965 -213.06845093 290.93652344 C-213.07514309 291.85178425 -213.08183526 292.76704506 -213.08873022 293.71004105 C-213.08090697 294.54321224 -213.07308373 295.37638344 -213.06502342 296.23480225 C-213.06453637 296.95502438 -213.06404931 297.67524651 -213.06354749 298.41729355 C-212.79071182 300.37121822 -212.79071182 300.37121822 -211.61805695 302.04393548 C-208.7019 303.96013549 -205.79539976 303.72243106 -202.42106533 303.68723011 C-201.67194182 303.69129084 -200.92281831 303.69535156 -200.15099409 303.69953534 C-197.62053183 303.7095449 -195.09061593 303.69801802 -192.56016541 303.6867218 C-190.7358375 303.68946019 -188.91151117 303.69351037 -187.08718878 303.69876546 C-182.05827102 303.70939338 -177.02952993 303.70119682 -172.00061977 303.69001496 C-166.5833977 303.68120059 -161.16619945 303.68960841 -155.74897766 303.69587708 C-145.13068822 303.7053831 -134.51246656 303.69874958 -123.89418214 303.68661413 C-111.54041253 303.6730191 -99.18665921 303.67462976 -86.83288402 303.67674746 C-64.79799922 303.67993995 -42.76314671 303.66825449 -20.72827148 303.64868164 C0.67571004 303.62967407 22.07965322 303.62259438 43.48364258 303.62817383 C66.76702368 303.6342252 90.05038812 303.63406653 113.33376783 303.622688 C115.81421657 303.62148065 118.29466532 303.62027466 120.77511406 303.61907005 C122.60596959 303.61816475 122.60596959 303.61816475 124.47381209 303.61724115 C133.09458923 303.6133543 141.71536018 303.61375857 150.33613777 303.6156559 C160.83446757 303.61777324 171.33276414 303.61258884 181.83108456 303.59804235 C187.1922484 303.5907754 192.55336373 303.58674083 197.91453171 303.59128571 C202.81509188 303.5953392 207.71555156 303.59026252 212.61609643 303.57765963 C214.39597438 303.57471311 216.17586171 303.57519146 217.95573736 303.57930271 C220.36124952 303.58435774 222.76641862 303.57729183 225.17190647 303.56697559 C225.87491559 303.57137208 226.5779247 303.57576856 227.30223712 303.58029827 C231.24978221 303.64645863 231.24978221 303.64645863 234.3125 301.3125 C234.51293214 298.17090495 234.58601524 295.11711941 234.57319641 291.97412109 C234.57702196 290.99377081 234.58084751 290.01342052 234.58478898 289.00336266 C234.59516015 285.69750072 234.59111905 282.39181113 234.5871582 279.0859375 C234.59150237 276.72438393 234.59668452 274.36283178 234.60264587 272.00128174 C234.61468122 266.24034348 234.61718355 260.47945946 234.61484561 254.71851015 C234.61306517 250.03798178 234.61480618 245.35746759 234.61907005 240.67694092 C234.61996284 239.67908351 234.61996284 239.67908351 234.62087366 238.66106737 C234.62208536 237.30980189 234.62329949 235.95853642 234.62451603 234.60727096 C234.63540085 221.9256544 234.63322452 209.24406442 234.62713119 196.56244636 C234.62196011 184.95000965 234.6332208 173.33765678 234.65222941 161.72523665 C234.67158062 149.81256499 234.67986866 137.89993305 234.67610615 125.98724556 C234.6741901 119.29475268 234.67672084 112.60233118 234.69082069 105.90985107 C234.70333956 99.61933528 234.70151155 93.32898806 234.68840981 87.03847504 C234.68603155 84.72368057 234.68882296 82.40887445 234.69703293 80.09409332 C234.7073968 76.94615577 234.69948367 73.79879484 234.6867218 70.65087891 C234.69409609 69.72424124 234.70147037 68.79760357 234.70906812 67.84288597 C234.70186158 67.00412233 234.69465503 66.1653587 234.68723011 65.30117798 C234.68731263 64.21034881 234.68731263 64.21034881 234.68739682 63.09748268 C234.4419168 60.89302792 234.4419168 60.89302792 231.3125 59.3125 C228.85850129 59.119173 226.51851395 59.04258439 224.06447601 59.05802441 C223.31734047 59.05481793 222.57020494 59.05161145 221.80042893 59.04830781 C219.27682883 59.03995361 216.75346273 59.04595089 214.2298584 59.05180359 C212.41036875 59.04878538 210.59088037 59.04489757 208.77139425 59.04021102 C203.7558484 59.02987978 198.74037362 59.03212581 193.72482181 59.03639162 C188.32189575 59.03884956 182.91898722 59.02985636 177.5160675 59.02235413 C166.9255345 59.00957943 156.33502682 59.00781685 145.7444874 59.01015439 C137.14046167 59.01193449 128.53644364 59.01019455 119.93241882 59.00592995 C118.09842632 59.00503716 118.09842632 59.00503716 116.22738346 59.00412634 C113.74388826 59.00291465 111.26039305 59.00170051 108.77689785 59.00048397 C85.466736 58.98959792 62.15658861 58.99177606 38.84642595 58.99786881 C17.49938547 59.00303991 -3.84760067 58.99177932 -25.19463307 58.97277059 C-47.09099714 58.9534215 -68.98733961 58.94513097 -90.88371229 58.94889385 C-103.18602467 58.95081022 -115.48829821 58.94827594 -127.79060364 58.93417931 C-138.26256087 58.92230184 -148.73445536 58.92081964 -159.20641339 58.93296947 C-164.55355028 58.93888359 -169.90057222 58.93988811 -175.24770164 58.92796707 C-180.13663035 58.91719381 -185.02534692 58.9201085 -189.91426533 58.93422876 C-191.68877975 58.93689947 -193.46331035 58.9344357 -195.237809 58.92649289 C-197.63862574 58.91648731 -200.03869059 58.92472148 -202.43947601 58.93776989 C-203.13825377 58.93046054 -203.83703153 58.9231512 -204.55698436 58.91562036 C-207.33945969 58.94725282 -209.25925405 59.03093275 -211.61690629 60.58106452 Z " fill="#445EA0" transform="translate(255.6875,10.6875)"/>
<path d="M0 0 C49.83 0 99.66 0 151 0 C151 12.87 151 25.74 151 39 C147.55820313 39.03738281 144.11640625 39.07476562 140.5703125 39.11328125 C137.24749284 39.15945414 133.92478773 39.21070324 130.60205078 39.26245117 C128.2876681 39.2957645 125.97320292 39.32377622 123.65869141 39.34643555 C120.33720644 39.37986377 117.01648198 39.4321735 113.6953125 39.48828125 C112.65569366 39.49467117 111.61607483 39.5010611 110.54495239 39.50764465 C109.58410736 39.52743881 108.62326233 39.54723297 107.63330078 39.56762695 C106.36089035 39.58428154 106.36089035 39.58428154 105.06277466 39.60127258 C104.0417012 39.79864265 104.0417012 39.79864265 103 40 C100.82762638 43.25856044 100.74397349 44.22642344 100.734375 48 C100.73179687 48.969375 100.72921875 49.93875 100.7265625 50.9375 C100.73816406 52.4534375 100.73816406 52.4534375 100.75 54 C100.74226563 55.010625 100.73453125 56.02125 100.7265625 57.0625 C100.73042969 58.5165625 100.73042969 58.5165625 100.734375 60 C100.73775879 61.3303125 100.73775879 61.3303125 100.74121094 62.6875 C100.85170638 65.27450945 100.85170638 65.27450945 103 68 C105.73392957 68.29652263 108.24191772 68.395497 110.97840881 68.36749268 C111.81245678 68.37076152 112.64650474 68.37403036 113.50582689 68.37739825 C116.31664776 68.38471459 119.12695464 68.37048806 121.93774414 68.35644531 C123.94624419 68.35723568 125.9547441 68.35933136 127.96324158 68.36264038 C133.43003056 68.36778831 138.89663232 68.35421171 144.36339116 68.33711338 C150.07245136 68.32211667 155.78150873 68.32325236 161.49058533 68.32244873 C171.07847302 68.31875245 180.66628928 68.3037663 190.25415039 68.28125 C202.57830992 68.25236755 214.9024119 68.24202678 227.2266016 68.2375679 C237.80001622 68.23359376 248.37341822 68.22109096 258.94682384 68.20722103 C262.35635967 68.20311452 265.76589505 68.20019273 269.17543221 68.19742584 C274.52283387 68.19254617 279.87020031 68.18236542 285.21758461 68.16798782 C287.1860955 68.16345055 289.15461114 68.1606228 291.12312698 68.15958023 C293.7983121 68.15784486 296.4734079 68.14998948 299.14857483 68.14044189 C299.9380512 68.14130838 300.72752757 68.14217486 301.54092747 68.1430676 C305.06393504 68.44774781 305.06393504 68.44774781 308 67 C308.08748207 65.07332493 308.10697334 63.14348139 308.09765625 61.21484375 C308.09282227 59.46010742 308.09282227 59.46010742 308.08789062 57.66992188 C308.07951172 56.43822266 308.07113281 55.20652344 308.0625 53.9375 C308.05573242 52.08415039 308.05573242 52.08415039 308.04882812 50.19335938 C308.03699608 47.12885883 308.02051173 44.06445279 308 41 C305.62617015 39.81308507 304.10821107 39.84427133 301.45849609 39.79467773 C300.04725967 39.7647599 300.04725967 39.7647599 298.60751343 39.73423767 C297.58976837 39.71752518 296.57202332 39.70081268 295.5234375 39.68359375 C294.48305328 39.66281265 293.44266907 39.64203156 292.37075806 39.62062073 C289.03890751 39.55510128 285.7069765 39.49622908 282.375 39.4375 C280.11978326 39.39431706 277.86457473 39.35070285 275.609375 39.30664062 C270.07299802 39.19860381 264.53656224 39.09954798 259 39 C259 26.13 259 13.26 259 0 C308.83 0 358.66 0 410 0 C407.39283298 6.51791754 403.29022168 11.53116479 399 17 C398.28328125 17.91394531 397.5665625 18.82789063 396.828125 19.76953125 C360.30838055 65.28592808 310.29202839 94.72200637 253.4375 107.1875 C252.74293701 107.34259033 252.04837402 107.49768066 251.33276367 107.6574707 C236.07779342 110.83739464 220.84199746 111.37451585 205.3125 111.3125 C204.34000305 111.31034485 203.3675061 111.3081897 202.36553955 111.30596924 C188.36099331 111.25615559 174.74812525 110.88170311 161 108 C160.01080566 107.80664062 159.02161133 107.61328125 158.00244141 107.4140625 C120.04058498 99.91084976 84.34620955 84.1179482 54 60 C53.10410156 59.29617188 52.20820312 58.59234375 51.28515625 57.8671875 C31.56616372 42.08067698 13.37480232 23.55363826 0 2 C0 1.34 0 0.68 0 0 Z " fill="#FEAE10" transform="translate(51,390)"/>
<path d="M0 0 C1.75374464 1.75374464 1.11982098 4.05148529 1.12442875 6.38728428 C1.11903159 7.54824824 1.11903159 7.54824824 1.11352539 8.73266602 C1.11364593 9.55549796 1.11376646 10.37832991 1.11389065 11.22609615 C1.11314145 13.90205991 1.10551294 16.57795488 1.09765625 19.25390625 C1.09618685 20.90100064 1.09516613 22.54809548 1.09460449 24.19519043 C1.08935137 30.31763405 1.07539029 36.44006769 1.0625 42.5625 C1.041875 56.236875 1.02125 69.91125 1 84 C28.39 84 55.78 84 84 84 C86.54701755 101.82912283 78.25892083 120.31706824 68.125 134.65234375 C54.51718262 152.45773384 34.69653022 163.86577375 12.64453125 167.5625 C-9.96071247 170.27609839 -31.55537725 164.30397322 -49.9140625 150.8671875 C-66.97965181 137.37455904 -78.80058839 118.35218047 -82.5625 96.7734375 C-85.2029757 73.99933459 -80.3007491 52.84672932 -67 34 C-64.18589247 30.45950732 -61.19141479 27.20214223 -58 24 C-57.26394531 23.24074219 -56.52789062 22.48148438 -55.76953125 21.69921875 C-41.40162108 7.7645119 -20.19219996 -1.37674091 0 0 Z " fill="#90DFE7" transform="translate(134,110)"/>
<path d="M0 0 C0.97249695 0.00215515 1.9449939 0.0043103 2.94696045 0.00653076 C16.95150669 0.05634441 30.56437475 0.43079689 44.3125 3.3125 C45.30169434 3.50585938 46.29088867 3.69921875 47.31005859 3.8984375 C75.47484577 9.46524613 104.30844256 19.21465411 128.3125 35.3125 C128.3125 35.6425 128.3125 35.9725 128.3125 36.3125 C43.8325 36.3125 -40.6475 36.3125 -127.6875 36.3125 C-108.83216869 17.45716869 -73.61310535 9.71332909 -48.125 4.125 C-47.08315552 3.8923645 -47.08315552 3.8923645 -46.02026367 3.6550293 C-30.76529342 0.47510536 -15.52949746 -0.06201585 0 0 Z " fill="#FEAE10" transform="translate(255.6875,10.6875)"/>
<path d="M0 0 C21.06777426 0.60578265 42.17513193 12.09513359 56.4453125 27.10546875 C69.59576233 42.57188849 77.87335415 60.32299408 77.578125 80.890625 C77.375 83.375 77.375 83.375 76.375 84.375 C73.89085052 84.48065282 71.43436167 84.52178274 68.94946289 84.52026367 C68.1722438 84.52362228 67.39502472 84.5269809 66.59425354 84.53044128 C64.01203841 84.53997961 61.42988792 84.54189583 58.84765625 84.54296875 C57.06025668 84.54617932 55.27285738 84.54954324 53.48545837 84.55305481 C49.73354482 84.55905329 45.98165434 84.56089397 42.22973633 84.56030273 C37.41295177 84.56020107 32.59631448 84.57385452 27.77956486 84.59107494 C24.08649511 84.60217248 20.39346123 84.60422264 16.70037651 84.60369301 C14.92410207 84.60487648 13.1478268 84.60931865 11.37156868 84.61702538 C8.89091694 84.62678017 6.41058815 84.62396526 3.92993164 84.61791992 C3.19063416 84.62353943 2.45133667 84.62915894 1.68963623 84.63494873 C-3.39668436 84.60331564 -3.39668436 84.60331564 -5.625 82.375 C-5.82331516 79.82611876 -5.89778262 77.38589779 -5.88378906 74.8359375 C-5.8872937 74.05857239 -5.89079834 73.28120728 -5.89440918 72.48028564 C-5.90323206 69.90343368 -5.89737545 67.3268549 -5.890625 64.75 C-5.89197149 62.96402941 -5.89391189 61.17805918 -5.89642334 59.39208984 C-5.89937535 55.64612341 -5.89507449 51.90025225 -5.88574219 48.15429688 C-5.87434759 43.34537167 -5.88090666 38.53666969 -5.89288712 33.72775269 C-5.90010364 30.03896392 -5.89781875 26.35022833 -5.89263153 22.66143799 C-5.89129446 20.88795953 -5.89294476 19.11447629 -5.89759064 17.34100342 C-5.90265249 14.86522575 -5.89495063 12.3898129 -5.88378906 9.9140625 C-5.88783752 9.17633606 -5.89188599 8.43860962 -5.89605713 7.67852783 C-5.85175868 2.39229898 -5.67653808 0.58722808 0 0 Z " fill="#FEAF11" transform="translate(147.625,102.625)"/>
<path d="M0 0 C1.47436523 0.01933594 1.47436523 0.01933594 2.97851562 0.0390625 C4.00267578 0.07257813 5.02683594 0.10609375 6.08203125 0.140625 C7.63567383 0.16769531 7.63567383 0.16769531 9.22070312 0.1953125 C11.77957409 0.24248063 14.33658967 0.30828443 16.89453125 0.390625 C15.90453125 1.875625 15.90453125 1.875625 14.89453125 3.390625 C14.59842284 5.34542174 14.59842284 5.34542174 14.64843559 7.50793743 C14.6444535 8.34992552 14.6404714 9.1919136 14.63636863 10.05941647 C14.64219432 10.98450554 14.64802 11.90959461 14.65402222 12.86271667 C14.65145894 14.33664044 14.65145894 14.33664044 14.64884388 15.84034044 C14.6455378 19.14778382 14.65657115 22.45502634 14.66748047 25.76245117 C14.66804434 28.12739558 14.66772849 30.49234034 14.66659546 32.85728455 C14.66607982 38.62210635 14.67476911 44.38686187 14.68747078 50.15166851 C14.70175517 56.85865027 14.70476 63.56562253 14.70704712 70.27261738 C14.71142593 82.23376089 14.72474009 94.19487715 14.74365234 106.15600586 C14.76200632 117.77612166 14.77616518 129.39623006 14.78466797 141.01635742 C14.78519342 141.73244819 14.78571886 142.44853896 14.78626023 143.18632945 C14.78887028 146.7786946 14.7913977 150.3710598 14.79388404 153.96342504 C14.81462234 183.77251079 14.85000146 213.58156471 14.89453125 243.390625 C15.55453125 243.720625 16.21453125 244.050625 16.89453125 244.390625 C13.29063461 244.50663504 9.68721658 244.57780908 6.08203125 244.640625 C5.05787109 244.67414063 4.03371094 244.70765625 2.97851562 244.7421875 C1.99560547 244.75507813 1.01269531 244.76796875 0 244.78125 C-0.90596924 244.80219727 -1.81193848 244.82314453 -2.74536133 244.84472656 C-5.10546875 244.390625 -5.10546875 244.390625 -6.72916603 242.95059204 C-8.82987007 239.04321539 -8.51877934 235.34774143 -8.48641968 230.97705078 C-8.49109965 230.01273699 -8.49577962 229.04842319 -8.50060141 228.05488777 C-8.51259265 224.81509887 -8.50307791 221.57572974 -8.49365234 218.3359375 C-8.4977162 216.01674146 -8.50305703 213.69754735 -8.50958252 211.37835693 C-8.52328394 205.0726931 -8.51794575 198.76717617 -8.50844526 192.4615097 C-8.50086333 185.87033179 -8.50789019 179.27916667 -8.51260376 172.68798828 C-8.51901601 160.90857031 -8.5090779 149.12921427 -8.49382575 137.34980702 C-8.4804223 126.66741629 -8.48275032 115.98512335 -8.49658203 105.30273438 C-8.51263309 92.9004968 -8.51861449 80.4983216 -8.50974524 68.09607506 C-8.50506203 61.5298668 -8.50446168 54.96372593 -8.51435471 48.39752197 C-8.52300433 42.22515387 -8.51703902 36.05297091 -8.49967194 29.88062286 C-8.49569638 27.61182208 -8.4968593 25.34300578 -8.50345993 23.07421112 C-8.51162318 19.98399493 -8.50141681 16.894377 -8.48641968 13.80419922 C-8.49311184 12.90031527 -8.49980401 11.99643131 -8.50669897 11.06515694 C-8.44965539 5.03082315 -8.44965539 5.03082315 -6.72916603 1.83065796 C-4.45859843 -0.18307466 -3.00293492 -0.06943202 0 0 Z " fill="#29A4A5" transform="translate(29.10546875,69.609375)"/>
<path d="M0 0 C29.04 0 58.08 0 88 0 C88 12.87 88 25.74 88 39 C58.96 39 29.92 39 0 39 C0 26.13 0 13.26 0 0 Z " fill="#445EA0" transform="translate(222,390)"/>
<path d="M0 0 C0.84175781 -0.00257812 1.68351563 -0.00515625 2.55078125 -0.0078125 C3.87142578 0.00378906 3.87142578 0.00378906 5.21875 0.015625 C6.09917969 0.00789063 6.97960937 0.00015625 7.88671875 -0.0078125 C8.72847656 -0.00523438 9.57023438 -0.00265625 10.4375 0 C11.59668945 0.00338379 11.59668945 0.00338379 12.77929688 0.00683594 C14.71875 0.265625 14.71875 0.265625 16.71875 2.265625 C16.91694282 4.72405422 16.99156958 7.06982099 16.97753906 9.52929688 C16.9810437 10.27740128 16.98454834 11.02550568 16.98815918 11.79627991 C16.9969809 14.27573859 16.99112589 16.75491328 16.984375 19.234375 C16.98572153 20.95308487 16.98766195 22.67179437 16.99017334 24.39050293 C16.9931252 27.9952354 16.98882501 31.59986886 16.97949219 35.20458984 C16.96809759 39.8319156 16.97465674 44.45900936 16.98663712 49.0863266 C16.99385407 52.63614662 16.99156855 56.18591137 16.98638153 59.73573303 C16.98504458 61.44222542 16.98669435 63.14872277 16.99134064 64.85520935 C16.99640322 67.23759305 16.98869966 69.61959775 16.97753906 72.00195312 C16.98158752 72.71162735 16.98563599 73.42130157 16.98980713 74.15248108 C16.94727906 79.03709594 16.94727906 79.03709594 14.71875 81.265625 C12.77929688 81.52441406 12.77929688 81.52441406 10.4375 81.53125 C9.59574219 81.53382813 8.75398437 81.53640625 7.88671875 81.5390625 C7.00628906 81.53132813 6.12585938 81.52359375 5.21875 81.515625 C4.33832031 81.52335937 3.45789063 81.53109375 2.55078125 81.5390625 C1.70902344 81.53648437 0.86726562 81.53390625 0 81.53125 C-0.77279297 81.52899414 -1.54558594 81.52673828 -2.34179688 81.52441406 C-4.28125 81.265625 -4.28125 81.265625 -6.28125 79.265625 C-6.47944282 76.80719578 -6.55406958 74.46142901 -6.54003906 72.00195312 C-6.5435437 71.25384872 -6.54704834 70.50574432 -6.55065918 69.73497009 C-6.5594809 67.25551141 -6.55362589 64.77633672 -6.546875 62.296875 C-6.54822153 60.57816513 -6.55016195 58.85945563 -6.55267334 57.14074707 C-6.5556252 53.5360146 -6.55132501 49.93138114 -6.54199219 46.32666016 C-6.53059759 41.6993344 -6.53715674 37.07224064 -6.54913712 32.4449234 C-6.55635407 28.89510338 -6.55406855 25.34533863 -6.54888153 21.79551697 C-6.54754458 20.08902458 -6.54919435 18.38252723 -6.55384064 16.67604065 C-6.55890322 14.29365695 -6.55119966 11.91165225 -6.54003906 9.52929688 C-6.54408752 8.81962265 -6.54813599 8.10994843 -6.55230713 7.37876892 C-6.50448418 1.88600382 -5.60030491 0.01634785 0 0 Z " fill="#FBFDFE" transform="translate(246.28125,100.734375)"/>
<path d="M0 0 C1.15822266 -0.00483398 1.15822266 -0.00483398 2.33984375 -0.00976562 C6.22431666 0.02726141 8.20317851 0.11461901 11.5 2.3125 C11.79729242 4.81516273 11.89929353 7.07132957 11.87231445 9.57617188 C11.87596512 10.32427628 11.87961578 11.07238068 11.88337708 11.84315491 C11.89150112 14.32274892 11.87785759 16.80169321 11.86328125 19.28125 C11.86276286 20.99995931 11.86327973 22.71866921 11.86479187 24.43737793 C11.86470206 28.04216342 11.85425566 31.64672566 11.83618164 35.25146484 C11.81349411 39.8788058 11.81294944 44.50582034 11.81969929 49.1332016 C11.82303621 52.68303341 11.81641442 56.2327904 11.80657005 59.78260803 C11.80271298 61.48909616 11.80157193 63.1955926 11.8031559 64.90208435 C11.80352558 67.28449439 11.79093402 69.66648144 11.7746582 72.04882812 C11.77713562 72.75850235 11.77961304 73.46817657 11.78216553 74.19935608 C11.72874197 79.08375803 11.72874197 79.08375803 9.5 81.3125 C7.56054688 81.57128906 7.56054688 81.57128906 5.21875 81.578125 C4.37699219 81.58070313 3.53523438 81.58328125 2.66796875 81.5859375 C1.78753906 81.57820313 0.90710938 81.57046875 0 81.5625 C-0.88042969 81.57023437 -1.76085937 81.57796875 -2.66796875 81.5859375 C-3.50972656 81.58335937 -4.35148437 81.58078125 -5.21875 81.578125 C-5.99154297 81.57586914 -6.76433594 81.57361328 -7.56054688 81.57128906 C-9.5 81.3125 -9.5 81.3125 -11.5 79.3125 C-11.703378 76.88973655 -11.78325341 74.58076281 -11.7746582 72.15649414 C-11.77976913 71.4197496 -11.78488007 70.68300507 -11.79014587 69.92393494 C-11.80407758 67.48176004 -11.80308242 65.03986623 -11.80078125 62.59765625 C-11.80466631 60.90376174 -11.80900059 59.20986821 -11.81376648 57.51597595 C-11.82123645 53.96252283 -11.82093189 50.40916906 -11.81567383 46.85571289 C-11.80987911 42.29791019 -11.8268063 37.74051385 -11.8500185 33.18277836 C-11.86473795 29.68352371 -11.86562998 26.18436732 -11.86250877 22.6850872 C-11.86302292 21.00453321 -11.86827815 19.32397385 -11.87832069 17.64344978 C-11.89063302 15.29466345 -11.88392531 12.9466736 -11.87231445 10.59790039 C-11.87995819 9.90117218 -11.88760193 9.20444397 -11.89547729 8.48660278 C-11.86480533 5.68492864 -11.78949948 3.74990395 -10.22087097 1.37986755 C-7.12478516 -0.54047487 -3.52824166 -0.07362775 0 0 Z " fill="#FAAF15" transform="translate(371.5,196.6875)"/>
<path d="M0 0 C3.47914941 -0.02887814 6.95826831 -0.04675687 10.4375 -0.0625 C11.92733398 -0.07506836 11.92733398 -0.07506836 13.44726562 -0.08789062 C14.39150391 -0.09111328 15.33574219 -0.09433594 16.30859375 -0.09765625 C17.62041626 -0.10551147 17.62041626 -0.10551147 18.95874023 -0.11352539 C21 0 21 0 22 1 C22.10450769 2.95280184 22.13855374 4.90940545 22.14526367 6.86499023 C22.15164352 8.11976669 22.15802338 9.37454315 22.16459656 10.66734314 C22.16612512 12.04775962 22.16723914 13.42817662 22.16796875 14.80859375 C22.17117967 16.21484919 22.17454362 17.62110429 22.17805481 19.02735901 C22.18405232 21.97894058 22.18589408 24.93049284 22.18530273 27.88208008 C22.18520109 31.66980046 22.19885285 35.45733347 22.21607494 39.24500942 C22.22717742 42.15058765 22.22922248 45.05612033 22.22869301 47.96171761 C22.2298758 49.35840564 22.23431421 50.75509476 22.24202538 52.15176201 C22.25178925 54.10302201 22.24769234 56.05433664 22.24291992 58.00561523 C22.24434494 59.11734604 22.24576996 60.22907684 22.24723816 61.37449646 C22 64 22 64 20 66 C18.06054688 66.25878906 18.06054688 66.25878906 15.71875 66.265625 C14.87699219 66.26820313 14.03523438 66.27078125 13.16796875 66.2734375 C12.28753906 66.26570313 11.40710938 66.25796875 10.5 66.25 C9.61957031 66.25773437 8.73914063 66.26546875 7.83203125 66.2734375 C6.99027344 66.27085937 6.14851563 66.26828125 5.28125 66.265625 C4.50845703 66.26336914 3.73566406 66.26111328 2.93945312 66.25878906 C1 66 1 66 -1 64 C-1.24723816 61.41918945 -1.24723816 61.41918945 -1.24291992 58.11328125 C-1.24599655 56.87860107 -1.24907318 55.6439209 -1.25224304 54.37182617 C-1.24534507 53.01871556 -1.23807808 51.66560679 -1.23046875 50.3125 C-1.22927691 48.93009484 -1.2288238 47.54768886 -1.2290802 46.1652832 C-1.227515 43.26671282 -1.21922283 40.36826589 -1.20581055 37.46972656 C-1.18882062 33.75045954 -1.1849962 30.03132826 -1.18575573 26.31202698 C-1.18548406 23.45705871 -1.18000333 20.60212024 -1.17275429 17.74716187 C-1.16956753 16.37560247 -1.16760019 15.0040397 -1.16686058 13.63247681 C-1.16469713 11.71721181 -1.15516012 9.8019594 -1.14526367 7.88671875 C-1.14145187 6.79576904 -1.13764008 5.70481934 -1.13371277 4.58081055 C-1 2 -1 2 0 0 Z " fill="#FBFDFE" transform="translate(331,116)"/>
<path d="M0 0 C0.84175781 -0.00257813 1.68351562 -0.00515625 2.55078125 -0.0078125 C3.87142578 0.00378906 3.87142578 0.00378906 5.21875 0.015625 C6.09917969 0.00789062 6.97960937 0.00015625 7.88671875 -0.0078125 C8.72847656 -0.00523437 9.57023437 -0.00265625 10.4375 0 C11.59668945 0.00338379 11.59668945 0.00338379 12.77929688 0.00683594 C14.71875 0.265625 14.71875 0.265625 16.71875 2.265625 C16.97271729 4.84643555 16.97271729 4.84643555 16.97753906 8.15234375 C16.98384338 9.38702393 16.99014771 10.6217041 16.99664307 11.89379883 C16.99306338 13.246909 16.98896145 14.60001787 16.984375 15.953125 C16.98572175 17.33553129 16.98766236 18.71793713 16.99017334 20.1003418 C16.99312418 22.99890651 16.98882836 25.89734803 16.97949219 28.79589844 C16.96809755 32.51523137 16.97465725 36.23427568 16.98663712 39.95359802 C16.99385688 42.80857527 16.99156728 45.66348385 16.98638153 48.51846313 C16.98504535 49.89002517 16.98669166 51.26159339 16.99134064 52.63314819 C16.99640748 54.5483997 16.98731831 56.46367301 16.97753906 58.37890625 C16.97515228 60.01533081 16.97515228 60.01533081 16.97271729 61.68481445 C16.71875 64.265625 16.71875 64.265625 14.71875 66.265625 C12.77929688 66.52441406 12.77929688 66.52441406 10.4375 66.53125 C9.59574219 66.53382813 8.75398438 66.53640625 7.88671875 66.5390625 C7.00628906 66.53132813 6.12585938 66.52359375 5.21875 66.515625 C4.33832031 66.52335937 3.45789063 66.53109375 2.55078125 66.5390625 C1.70902344 66.53648437 0.86726563 66.53390625 0 66.53125 C-0.77279297 66.52899414 -1.54558594 66.52673828 -2.34179688 66.52441406 C-4.28125 66.265625 -4.28125 66.265625 -6.28125 64.265625 C-6.53521729 61.68481445 -6.53521729 61.68481445 -6.54003906 58.37890625 C-6.54634338 57.14422607 -6.55264771 55.9095459 -6.55914307 54.63745117 C-6.55556338 53.284341 -6.55146145 51.93123213 -6.546875 50.578125 C-6.54822175 49.19571871 -6.55016236 47.81331287 -6.55267334 46.4309082 C-6.55562418 43.53234349 -6.55132836 40.63390197 -6.54199219 37.73535156 C-6.53059755 34.01601863 -6.53715725 30.29697432 -6.54913712 26.57765198 C-6.55635688 23.72267473 -6.55406728 20.86776615 -6.54888153 18.01278687 C-6.54754535 16.64122483 -6.54919166 15.26965661 -6.55384064 13.89810181 C-6.55890748 11.9828503 -6.54981831 10.06757699 -6.54003906 8.15234375 C-6.53844788 7.06139404 -6.53685669 5.97044434 -6.53521729 4.84643555 C-6.09317837 0.35444477 -4.02345032 0.01174485 0 0 Z " fill="#FBAF14" transform="translate(276.28125,211.734375)"/>
<path d="M0 0 C3.47914941 -0.02887814 6.95826831 -0.04675687 10.4375 -0.0625 C11.92733398 -0.07506836 11.92733398 -0.07506836 13.44726562 -0.08789062 C14.39150391 -0.09111328 15.33574219 -0.09433594 16.30859375 -0.09765625 C17.62041626 -0.10551147 17.62041626 -0.10551147 18.95874023 -0.11352539 C21 0 21 0 22 1 C22.10367027 2.55450988 22.13851522 4.11368255 22.14526367 5.67163086 C22.15164352 6.66613754 22.15802338 7.66064423 22.16459656 8.68528748 C22.16570938 9.76754105 22.1668222 10.84979462 22.16796875 11.96484375 C22.17129715 13.0684877 22.17462555 14.17213165 22.17805481 15.30921936 C22.18312886 17.64876894 22.18546299 19.98832578 22.18530273 22.32788086 C22.18748848 25.91857766 22.20563734 29.50896704 22.22460938 33.09960938 C22.22754327 35.36718644 22.22952809 37.63476498 22.23046875 39.90234375 C22.23765427 40.98257309 22.24483978 42.06280243 22.25224304 43.17576599 C22.24916641 44.17342484 22.24608978 45.17108368 22.24291992 46.19897461 C22.24434494 47.07976181 22.24576996 47.96054901 22.24723816 48.86802673 C22 51 22 51 20 53 C18.06054688 53.25878906 18.06054688 53.25878906 15.71875 53.265625 C14.87699219 53.26820313 14.03523438 53.27078125 13.16796875 53.2734375 C12.28753906 53.26570313 11.40710938 53.25796875 10.5 53.25 C9.61957031 53.25773437 8.73914063 53.26546875 7.83203125 53.2734375 C6.99027344 53.27085937 6.14851563 53.26828125 5.28125 53.265625 C4.50845703 53.26336914 3.73566406 53.26111328 2.93945312 53.25878906 C1 53 1 53 -1 51 C-1.24723816 48.91271973 -1.24723816 48.91271973 -1.24291992 46.30664062 C-1.24599655 45.33223022 -1.24907318 44.35781982 -1.25224304 43.35388184 C-1.24505753 42.29866333 -1.23787201 41.24344482 -1.23046875 40.15625 C-1.22978142 38.53620056 -1.22978142 38.53620056 -1.2290802 36.88342285 C-1.22605533 34.59691267 -1.21816209 32.3104046 -1.20581055 30.02392578 C-1.18757573 26.51457456 -1.18530067 23.00548735 -1.18554688 19.49609375 C-1.180631 17.27864354 -1.17480238 15.06119513 -1.16796875 12.84375 C-1.16685593 11.78853149 -1.1657431 10.73331299 -1.16459656 9.64611816 C-1.15821671 8.67170776 -1.15183685 7.69729736 -1.14526367 6.69335938 C-1.14145187 5.83335327 -1.13764008 4.97334717 -1.13371277 4.08728027 C-1 2 -1 2 0 0 Z " fill="#FBFDFE" transform="translate(271,129)"/>
<path d="M0 0 C0.84175781 -0.00257813 1.68351562 -0.00515625 2.55078125 -0.0078125 C3.87142578 0.00378906 3.87142578 0.00378906 5.21875 0.015625 C6.09917969 0.00789062 6.97960937 0.00015625 7.88671875 -0.0078125 C8.72847656 -0.00523437 9.57023437 -0.00265625 10.4375 0 C11.59668945 0.00338379 11.59668945 0.00338379 12.77929688 0.00683594 C14.71875 0.265625 14.71875 0.265625 16.71875 2.265625 C16.97271729 4.35290527 16.97271729 4.35290527 16.97753906 6.95898438 C16.98384338 7.93339478 16.99014771 8.90780518 16.99664307 9.91174316 C16.9925946 10.96696167 16.98854614 12.02218018 16.984375 13.109375 C16.98628845 14.18940796 16.9882019 15.26944092 16.99017334 16.38220215 C16.99153607 18.66870354 16.98783352 20.95521264 16.97949219 23.24169922 C16.96879412 26.75115255 16.97938473 30.26009393 16.9921875 33.76953125 C16.99086592 35.9869803 16.98830356 38.20442903 16.984375 40.421875 C16.98842346 41.47709351 16.99247192 42.53231201 16.99664307 43.61950684 C16.99033875 44.59391724 16.98403442 45.56832764 16.97753906 46.57226562 C16.97515228 47.86227478 16.97515228 47.86227478 16.97271729 49.17834473 C16.71875 51.265625 16.71875 51.265625 14.71875 53.265625 C12.77929688 53.52441406 12.77929688 53.52441406 10.4375 53.53125 C9.59574219 53.53382813 8.75398438 53.53640625 7.88671875 53.5390625 C7.00628906 53.53132813 6.12585938 53.52359375 5.21875 53.515625 C4.33832031 53.52335937 3.45789063 53.53109375 2.55078125 53.5390625 C1.70902344 53.53648437 0.86726563 53.53390625 0 53.53125 C-0.77279297 53.52899414 -1.54558594 53.52673828 -2.34179688 53.52441406 C-4.28125 53.265625 -4.28125 53.265625 -6.28125 51.265625 C-6.53521729 49.17834473 -6.53521729 49.17834473 -6.54003906 46.57226562 C-6.54634338 45.59785522 -6.55264771 44.62344482 -6.55914307 43.61950684 C-6.5550946 42.56428833 -6.55104614 41.50906982 -6.546875 40.421875 C-6.54878845 39.34184204 -6.5507019 38.26180908 -6.55267334 37.14904785 C-6.55403607 34.86254646 -6.55033352 32.57603736 -6.54199219 30.28955078 C-6.53129412 26.78009745 -6.54188473 23.27115607 -6.5546875 19.76171875 C-6.55336592 17.5442697 -6.55080356 15.32682097 -6.546875 13.109375 C-6.55092346 12.05415649 -6.55497192 10.99893799 -6.55914307 9.91174316 C-6.55283875 8.93733276 -6.54653442 7.96292236 -6.54003906 6.95898438 C-6.53844788 6.09897827 -6.53685669 5.23897217 -6.53521729 4.35290527 C-6.02651772 0.17205746 -3.63980569 0.01062495 0 0 Z " fill="#FBAF14" transform="translate(336.28125,224.734375)"/>
<path d="M0 0 C1.32539543 0.00848969 1.32539543 0.00848969 2.67756653 0.01715088 C5.50043868 0.03954633 8.32204263 0.08974773 11.14453125 0.140625 C13.05792438 0.16068594 14.9713374 0.17893742 16.88476562 0.1953125 C21.57600967 0.23942143 26.26630543 0.30847015 30.95703125 0.390625 C30.29703125 1.380625 29.63703125 2.370625 28.95703125 3.390625 C28.64865872 5.95609631 28.64865872 5.95609631 28.69140625 8.828125 C28.68882812 9.88773437 28.68625 10.94734375 28.68359375 12.0390625 C28.69519531 13.69808594 28.69519531 13.69808594 28.70703125 15.390625 C28.69929688 16.49664062 28.6915625 17.60265625 28.68359375 18.7421875 C28.68746094 20.33160156 28.68746094 20.33160156 28.69140625 21.953125 C28.69366211 22.92378906 28.69591797 23.89445312 28.69824219 24.89453125 C28.7870007 27.64034501 28.7870007 27.64034501 30.95703125 30.390625 C25.31540048 30.4894343 19.67427226 30.56206496 14.03198242 30.61035156 C12.11229684 30.63047848 10.19267263 30.6577829 8.27319336 30.69238281 C5.51530829 30.7408543 2.75823298 30.76358242 0 30.78125 C-0.85946732 30.80189514 -1.71893463 30.82254028 -2.60444641 30.84381104 C-8.49896287 30.84603545 -8.49896287 30.84603545 -11.08325195 28.68261719 C-12.17976991 26.06391696 -12.43043577 24.16582289 -12.44140625 21.328125 C-12.44527344 20.36648438 -12.44914063 19.40484375 -12.453125 18.4140625 C-12.44152344 17.41632813 -12.42992187 16.41859375 -12.41796875 15.390625 C-12.42957031 14.39289063 -12.44117188 13.39515625 -12.453125 12.3671875 C-12.44925781 11.40554688 -12.44539062 10.44390625 -12.44140625 9.453125 C-12.43802246 8.57785156 -12.43463867 7.70257813 -12.43115234 6.80078125 C-11.22092645 -0.71327539 -6.42131971 -0.1542456 0 0 Z " fill="#1B2B62" transform="translate(163.04296875,428.609375)"/>
<path d="M0 0 C0.84175781 -0.00257813 1.68351562 -0.00515625 2.55078125 -0.0078125 C3.87142578 0.00378906 3.87142578 0.00378906 5.21875 0.015625 C6.09917969 0.00789062 6.97960937 0.00015625 7.88671875 -0.0078125 C8.72847656 -0.00523437 9.57023437 -0.00265625 10.4375 0 C11.59668945 0.00338379 11.59668945 0.00338379 12.77929688 0.00683594 C14.71875 0.265625 14.71875 0.265625 16.71875 2.265625 C16.97271729 4.12512207 16.97271729 4.12512207 16.97753906 6.40820312 C16.98384338 7.26248901 16.99014771 8.1167749 16.99664307 8.99694824 C16.9925946 9.92092407 16.98854614 10.8448999 16.984375 11.796875 C16.98628845 12.74373169 16.9882019 13.69058838 16.99017334 14.6661377 C16.99153573 16.67016872 16.98783556 18.67420854 16.97949219 20.67822266 C16.96879347 23.75313053 16.97938572 26.82745414 16.9921875 29.90234375 C16.99086591 31.84635546 16.98830354 33.79036681 16.984375 35.734375 C16.98842346 36.65835083 16.99247192 37.58232666 16.99664307 38.53430176 C16.99033875 39.38858765 16.98403442 40.24287354 16.97753906 41.12304688 C16.97515228 42.253172 16.97515228 42.253172 16.97271729 43.40612793 C16.71875 45.265625 16.71875 45.265625 14.71875 47.265625 C12.77929687 47.52441406 12.77929687 47.52441406 10.4375 47.53125 C9.59574219 47.53382813 8.75398438 47.53640625 7.88671875 47.5390625 C7.00628906 47.53132813 6.12585938 47.52359375 5.21875 47.515625 C4.33832031 47.52335937 3.45789063 47.53109375 2.55078125 47.5390625 C1.70902344 47.53648437 0.86726563 47.53390625 0 47.53125 C-0.77279297 47.52899414 -1.54558594 47.52673828 -2.34179688 47.52441406 C-4.28125 47.265625 -4.28125 47.265625 -6.28125 45.265625 C-6.53521729 43.40612793 -6.53521729 43.40612793 -6.54003906 41.12304688 C-6.54634338 40.26876099 -6.55264771 39.4144751 -6.55914307 38.53430176 C-6.5550946 37.61032593 -6.55104614 36.6863501 -6.546875 35.734375 C-6.54878845 34.78751831 -6.5507019 33.84066162 -6.55267334 32.8651123 C-6.55403573 30.86108128 -6.55033556 28.85704146 -6.54199219 26.85302734 C-6.53129347 23.77811947 -6.54188572 20.70379586 -6.5546875 17.62890625 C-6.55336591 15.68489454 -6.55080354 13.74088319 -6.546875 11.796875 C-6.55294769 10.41091125 -6.55294769 10.41091125 -6.55914307 8.99694824 C-6.55283875 8.14266235 -6.54653442 7.28837646 -6.54003906 6.40820312 C-6.53844788 5.65478638 -6.53685669 4.90136963 -6.53521729 4.12512207 C-5.98396367 0.08895463 -3.46393734 0.01011158 0 0 Z " fill="#FBFDFE" transform="translate(366.28125,134.734375)"/>
<path d="M0 0 C1.19012695 0.0009668 1.19012695 0.0009668 2.40429688 0.00195312 C3.22865234 0.01806641 4.05300781 0.03417969 4.90234375 0.05078125 C5.73056641 0.04755859 6.55878906 0.04433594 7.41210938 0.04101562 C13.57271783 0.09615533 13.57271783 0.09615533 15.83984375 2.36328125 C16.09381104 4.22277832 16.09381104 4.22277832 16.09863281 6.50585938 C16.10493713 7.36014526 16.11124146 8.21443115 16.11773682 9.09460449 C16.11368835 10.01858032 16.10963989 10.94255615 16.10546875 11.89453125 C16.1073822 12.84138794 16.10929565 13.78824463 16.11126709 14.76379395 C16.11262948 16.76782497 16.10892931 18.77186479 16.10058594 20.77587891 C16.08988722 23.85078678 16.10047947 26.92511039 16.11328125 30 C16.11195966 31.94401171 16.10939729 33.88802306 16.10546875 35.83203125 C16.10951721 36.75600708 16.11356567 37.67998291 16.11773682 38.63195801 C16.1114325 39.4862439 16.10512817 40.34052979 16.09863281 41.22070312 C16.09624603 42.35082825 16.09624603 42.35082825 16.09381104 43.50378418 C15.83984375 45.36328125 15.83984375 45.36328125 13.83984375 47.36328125 C11.90039062 47.62207031 11.90039062 47.62207031 9.55859375 47.62890625 C8.71683594 47.63148438 7.87507812 47.6340625 7.0078125 47.63671875 C6.12738281 47.62898438 5.24695313 47.62125 4.33984375 47.61328125 C3.45941406 47.62101562 2.57898438 47.62875 1.671875 47.63671875 C0.83011719 47.63414062 -0.01164063 47.6315625 -0.87890625 47.62890625 C-1.65169922 47.62665039 -2.42449219 47.62439453 -3.22070312 47.62207031 C-5.16015625 47.36328125 -5.16015625 47.36328125 -7.16015625 45.36328125 C-7.42085266 43.54847717 -7.42085266 43.54847717 -7.43481445 41.32836914 C-7.44434647 40.4973317 -7.45387848 39.66629425 -7.46369934 38.81007385 C-7.46278793 37.91110886 -7.46187653 37.01214386 -7.4609375 36.0859375 C-7.46522263 35.16364853 -7.46950775 34.24135956 -7.47392273 33.29112244 C-7.47967184 31.33837709 -7.48016203 29.38561033 -7.47583008 27.43286133 C-7.47267252 24.4411979 -7.49611355 21.45052526 -7.52148438 18.45898438 C-7.52375751 16.56380333 -7.5244608 14.66861963 -7.5234375 12.7734375 C-7.53264725 11.87649673 -7.54185699 10.97955597 -7.55134583 10.05543518 C-7.54511703 9.22124557 -7.53888824 8.38705597 -7.5324707 7.52758789 C-7.53310013 6.79415665 -7.53372955 6.0607254 -7.53437805 5.30506897 C-6.71696091 1.06359892 -3.98893917 -0.01638623 0 0 Z " fill="#FAAF15" transform="translate(247.16015625,230.63671875)"/>
<path d="M0 0 C6.6 0 13.2 0 20 0 C20.01417969 3.19042969 20.02835938 6.38085938 20.04296875 9.66796875 C20.07359442 12.76255843 20.11268194 15.85693375 20.15258789 18.95141602 C20.17576522 21.09977624 20.19016297 23.24825004 20.19555664 25.39672852 C20.20484791 28.48786173 20.24584351 31.57720912 20.29296875 34.66796875 C20.2890361 35.62648239 20.28510345 36.58499603 20.28105164 37.57255554 C20.38119554 42.16374646 20.46044041 44.30840456 23.35668945 48.02075195 C25.19914978 49.40034241 27.0848505 50.72323367 29 52 C25.43765572 52.08741124 21.87558892 52.14052896 18.3125 52.1875 C16.80139648 52.22520508 16.80139648 52.22520508 15.25976562 52.26367188 C5.8420652 52.35691643 5.8420652 52.35691643 2 49 C-0.11931075 45.82103387 -0.2469603 45.07025468 -0.22705078 41.43676758 C-0.22689972 40.51603958 -0.22674866 39.59531158 -0.22659302 38.64668274 C-0.21627045 37.65597275 -0.20594788 36.66526276 -0.1953125 35.64453125 C-0.1924826 34.62775803 -0.18965271 33.6109848 -0.18673706 32.56340027 C-0.17553383 29.31298092 -0.15042886 26.06283619 -0.125 22.8125 C-0.11497039 20.61003002 -0.10584451 18.40755572 -0.09765625 16.20507812 C-0.07729483 10.80319426 -0.03814605 5.40190487 0 0 Z " fill="#1A2B63" transform="translate(0,338)"/>
<path d="M0 0 C1.18202499 0.00091644 2.36404999 0.00183289 3.58189392 0.0027771 C6.0775047 0.00881238 8.57310827 0.024556 11.06860352 0.04931641 C14.89170976 0.08583592 18.71384686 0.09033558 22.53710938 0.08984375 C24.96224797 0.09967457 27.38738 0.11133141 29.8125 0.125 C30.95735367 0.12722565 32.10220734 0.12945129 33.28175354 0.13174438 C34.34643356 0.14450409 35.41111359 0.15726379 36.50805664 0.17041016 C37.44339737 0.17803375 38.3787381 0.18565735 39.34242249 0.19351196 C42.01189762 0.47936114 43.59869354 0.99831621 45.83984375 2.4609375 C48.1673372 5.95217767 48.34283691 7.35316001 47.83984375 11.4609375 C45.75710535 14.16249548 44.5658165 15.32428797 41.17710876 15.96214294 C40.16467606 15.96230911 39.15224335 15.96247528 38.10913086 15.96264648 C36.95791245 15.97202744 35.80669403 15.98140839 34.62059021 15.99107361 C33.38196732 15.97983963 32.14334442 15.96860565 30.8671875 15.95703125 C28.95529381 15.9592141 28.95529381 15.9592141 27.004776 15.96144104 C24.31017137 15.95978079 21.61697782 15.95028987 18.92260742 15.92749023 C15.47005631 15.89907627 12.01838887 15.90185181 8.56577206 15.91458035 C5.27035348 15.92320745 1.97507836 15.90809392 -1.3203125 15.89453125 C-3.18128319 15.89893471 -3.18128319 15.89893471 -5.07984924 15.90342712 C-6.2279155 15.89074295 -7.37598175 15.87805878 -8.55883789 15.86499023 C-9.57047501 15.85958725 -10.58211212 15.85418427 -11.62440491 15.84861755 C-14.16015625 15.4609375 -14.16015625 15.4609375 -15.97898865 14.18177795 C-17.63771368 11.76518515 -17.6213297 9.36306155 -17.75390625 6.49609375 C-15.44744146 -1.40961779 -6.53776948 -0.08221218 0 0 Z " fill="#8FDFE7" transform="translate(416.16015625,219.5390625)"/>
<path d="M0 0 C1.69195496 -0.01891296 1.69195496 -0.01891296 3.41809082 -0.03820801 C5.23850891 -0.02606262 5.23850891 -0.02606262 7.09570312 -0.01367188 C8.3457312 -0.01749878 9.59575928 -0.02132568 10.88366699 -0.02526855 C13.52701218 -0.02799102 16.16887798 -0.02262141 18.81201172 -0.00390625 C22.19512803 0.01888458 25.57697509 0.00575829 28.96004486 -0.01819611 C32.19280946 -0.03614871 35.42542195 -0.02356889 38.65820312 -0.01367188 C39.87181519 -0.0217688 41.08542725 -0.02986572 42.33581543 -0.03820801 C43.4637854 -0.02559937 44.59175537 -0.01299072 45.75390625 0 C47.24138367 0.00477356 47.24138367 0.00477356 48.75891113 0.00964355 C52.11005673 0.65980986 53.3016394 1.85500536 55.37695312 4.51757812 C55.87695312 7.51757812 55.87695312 7.51757812 55.37695312 10.51757812 C53.50985402 12.82033369 52.02047571 14.19581683 49.37695312 15.51757812 C47.64202736 15.62851409 45.90292842 15.67676454 44.16455078 15.69458008 C43.07647125 15.70741531 41.98839172 15.72025055 40.86734009 15.73347473 C39.68715302 15.74086166 38.50696594 15.7482486 37.29101562 15.75585938 C36.08254974 15.76393112 34.87408386 15.77200287 33.6289978 15.78031921 C31.06843505 15.79416808 28.50785377 15.80488662 25.94726562 15.81274414 C22.02503684 15.82997671 18.10364638 15.87385974 14.18164062 15.91796875 C11.69727184 15.92809354 9.21289587 15.93661031 6.72851562 15.94335938 C5.55237701 15.96086746 4.3762384 15.97837555 3.16445923 15.99641418 C1.52288345 15.99202583 1.52288345 15.99202583 -0.15185547 15.98754883 C-1.59508682 15.99634819 -1.59508682 15.99634819 -3.06747437 16.00532532 C-6.39564887 15.37012214 -7.57533674 14.17146299 -9.62304688 11.51757812 C-10.12304688 8.01757812 -10.12304688 8.01757812 -9.62304688 4.51757812 C-6.70460461 0.71900103 -4.71955096 0.01514581 0 0 Z " fill="#8FDFE7" transform="translate(408.623046875,159.482421875)"/>
<path d="M0 0 C1.18202499 0.00091644 2.36404999 0.00183289 3.58189392 0.0027771 C6.0775047 0.00881238 8.57310827 0.024556 11.06860352 0.04931641 C14.89170976 0.08583592 18.71384686 0.09033558 22.53710938 0.08984375 C24.96224797 0.09967457 27.38738 0.11133141 29.8125 0.125 C30.95735367 0.12722565 32.10220734 0.12945129 33.28175354 0.13174438 C34.34643356 0.14450409 35.41111359 0.15726379 36.50805664 0.17041016 C37.44339737 0.17803375 38.3787381 0.18565735 39.34242249 0.19351196 C42.01189762 0.47936114 43.59869354 0.99831621 45.83984375 2.4609375 C48.1673372 5.95217767 48.34283691 7.35316001 47.83984375 11.4609375 C45.75710535 14.16249548 44.5658165 15.32428797 41.17710876 15.96214294 C40.16467606 15.96230911 39.15224335 15.96247528 38.10913086 15.96264648 C36.95791245 15.97202744 35.80669403 15.98140839 34.62059021 15.99107361 C33.38196732 15.97983963 32.14334442 15.96860565 30.8671875 15.95703125 C28.95529381 15.9592141 28.95529381 15.9592141 27.004776 15.96144104 C24.31017137 15.95978079 21.61697782 15.95028987 18.92260742 15.92749023 C15.47005631 15.89907627 12.01838887 15.90185181 8.56577206 15.91458035 C5.27035348 15.92320745 1.97507836 15.90809392 -1.3203125 15.89453125 C-3.18128319 15.89893471 -3.18128319 15.89893471 -5.07984924 15.90342712 C-6.2279155 15.89074295 -7.37598175 15.87805878 -8.55883789 15.86499023 C-9.57047501 15.85958725 -10.58211212 15.85418427 -11.62440491 15.84861755 C-14.16015625 15.4609375 -14.16015625 15.4609375 -15.97898865 14.18177795 C-17.63771368 11.76518515 -17.6213297 9.36306155 -17.75390625 6.49609375 C-15.44744146 -1.40961779 -6.53776948 -0.08221218 0 0 Z " fill="#8FDFE7" transform="translate(416.16015625,137.5390625)"/>
<path d="M0 0 C1.62705116 -0.01407143 1.62705116 -0.01407143 3.28697205 -0.02842712 C4.45369949 -0.01719315 5.62042694 -0.00595917 6.82250977 0.00561523 C8.02577408 0.00416 9.22903839 0.00270477 10.46876526 0.00120544 C13.01321839 0.00286533 15.55768147 0.01443637 18.10205078 0.03515625 C21.99563307 0.0640732 25.88785101 0.05577318 29.78149414 0.04272461 C32.25350597 0.04896309 34.72551349 0.05735489 37.19750977 0.06811523 C38.36221298 0.0651796 39.5269162 0.06224396 40.72691345 0.05921936 C41.81476639 0.07190353 42.90261932 0.08458771 44.0234375 0.09765625 C44.97733871 0.10305923 45.93123993 0.10846222 46.91404724 0.11402893 C50.08621954 0.57594388 51.99092527 1.63570544 54.57641602 3.50170898 C55.45922852 5.40405273 55.45922852 5.40405273 55.70141602 7.43920898 C55.80711914 8.10823242 55.91282227 8.77725586 56.02172852 9.46655273 C55.57641602 11.50170898 55.57641602 11.50170898 53.8359375 13.59570312 C48.75164012 16.56874706 43.7653834 16.07244555 37.97875977 16.03295898 C36.75234268 16.03678589 35.5259256 16.04061279 34.26234436 16.04455566 C31.67260923 16.04727501 29.08284665 16.0399124 26.49316406 16.02319336 C22.52485104 16.00176802 18.55834493 16.02300613 14.59008789 16.04858398 C12.07380785 16.04594107 9.55752893 16.04081687 7.04125977 16.03295898 C5.85265854 16.04105591 4.66405731 16.04915283 3.43943787 16.05749512 C2.33471634 16.04488647 1.22999481 16.03227783 0.09179688 16.01928711 C-1.3645089 16.01451355 -1.3645089 16.01451355 -2.85023499 16.00964355 C-6.18040988 15.35232465 -7.37151813 14.16197382 -9.42358398 11.50170898 C-9.92358398 8.00170898 -9.92358398 8.00170898 -9.42358398 4.50170898 C-6.54846104 0.78539773 -4.6403554 0.00080902 0 0 Z " fill="#90DFE7" transform="translate(408.423583984375,116.498291015625)"/>
<path d="M0 0 C1.69195496 -0.01891296 1.69195496 -0.01891296 3.41809082 -0.03820801 C5.23850891 -0.02606262 5.23850891 -0.02606262 7.09570312 -0.01367188 C8.3457312 -0.01749878 9.59575928 -0.02132568 10.88366699 -0.02526855 C13.52701218 -0.02799102 16.16887798 -0.02262141 18.81201172 -0.00390625 C22.19512803 0.01888458 25.57697509 0.00575829 28.96004486 -0.01819611 C32.19280946 -0.03614871 35.42542195 -0.02356889 38.65820312 -0.01367188 C39.87181519 -0.0217688 41.08542725 -0.02986572 42.33581543 -0.03820801 C43.4637854 -0.02559937 44.59175537 -0.01299072 45.75390625 0 C47.24138367 0.00477356 47.24138367 0.00477356 48.75891113 0.00964355 C52.11005673 0.65980986 53.3016394 1.85500536 55.37695312 4.51757812 C55.87695312 7.51757812 55.87695312 7.51757812 55.37695312 10.51757812 C53.50985402 12.82033369 52.02047571 14.19581683 49.37695312 15.51757812 C47.70844889 15.62318126 46.03581065 15.66633043 44.36401367 15.67871094 C43.31920334 15.68831848 42.27439301 15.69792603 41.19792175 15.70782471 C40.06461929 15.71207458 38.93131683 15.71632446 37.76367188 15.72070312 C36.0211187 15.72925323 36.0211187 15.72925323 34.24336243 15.73797607 C31.7811474 15.74743608 29.31891965 15.75396401 26.85668945 15.7578125 C23.0904324 15.76751122 19.32472247 15.79852321 15.55859375 15.83007812 C13.16862304 15.83660867 10.77864842 15.84185894 8.38867188 15.84570312 C6.69782722 15.86422333 6.69782722 15.86422333 4.9728241 15.88311768 C3.91855728 15.88011658 2.86429047 15.87711548 1.77807617 15.87402344 C0.39147041 15.87949188 0.39147041 15.87949188 -1.02314758 15.8850708 C-4.45893898 15.39942577 -7.15488024 13.98574476 -9.62304688 11.51757812 C-10.21040626 5.29156864 -10.21040626 5.29156864 -7.95495605 2.31945801 C-5.07700244 0.09564639 -3.60703394 0.01157556 0 0 Z " fill="#8FDFE7" transform="translate(408.623046875,241.482421875)"/>
<path d="M0 0 C0.84175781 -0.00257813 1.68351562 -0.00515625 2.55078125 -0.0078125 C3.87142578 0.00378906 3.87142578 0.00378906 5.21875 0.015625 C6.09917969 0.00789062 6.97960937 0.00015625 7.88671875 -0.0078125 C8.72847656 -0.00523437 9.57023437 -0.00265625 10.4375 0 C11.59668945 0.00338379 11.59668945 0.00338379 12.77929688 0.00683594 C14.71875 0.265625 14.71875 0.265625 16.71875 2.265625 C16.91840373 4.89502696 16.9985911 7.41682663 16.984375 10.046875 C16.98628845 10.81616333 16.9882019 11.58545166 16.99017334 12.37805176 C16.99153508 14.0054558 16.98783939 15.6328707 16.97949219 17.26025391 C16.96879221 19.75578131 16.97938751 22.25058882 16.9921875 24.74609375 C16.9908659 26.32552243 16.9883035 27.90495066 16.984375 29.484375 C16.98842346 30.2333606 16.99247192 30.98234619 16.99664307 31.75402832 C16.94867243 37.03570257 16.94867243 37.03570257 14.71875 39.265625 C12.77929687 39.52441406 12.77929687 39.52441406 10.4375 39.53125 C9.59574219 39.53382813 8.75398438 39.53640625 7.88671875 39.5390625 C7.00628906 39.53132813 6.12585938 39.52359375 5.21875 39.515625 C4.33832031 39.52335937 3.45789063 39.53109375 2.55078125 39.5390625 C1.70902344 39.53648437 0.86726563 39.53390625 0 39.53125 C-0.77279297 39.52899414 -1.54558594 39.52673828 -2.34179688 39.52441406 C-4.28125 39.265625 -4.28125 39.265625 -6.28125 37.265625 C-6.48090373 34.63622304 -6.5610911 32.11442337 -6.546875 29.484375 C-6.54878845 28.71508667 -6.5507019 27.94579834 -6.55267334 27.15319824 C-6.55403508 25.5257942 -6.55033939 23.8983793 -6.54199219 22.27099609 C-6.53129221 19.77546869 -6.54188751 17.28066118 -6.5546875 14.78515625 C-6.5533659 13.20572757 -6.5508035 11.62629934 -6.546875 10.046875 C-6.55092346 9.2978894 -6.55497192 8.54890381 -6.55914307 7.77722168 C-6.50789781 2.13500474 -5.83702574 0.01703886 0 0 Z " fill="#FBAF14" transform="translate(306.28125,238.734375)"/>
<path d="M0 0 C0.84175781 -0.00257813 1.68351562 -0.00515625 2.55078125 -0.0078125 C3.87142578 0.00378906 3.87142578 0.00378906 5.21875 0.015625 C6.09917969 0.00789062 6.97960937 0.00015625 7.88671875 -0.0078125 C8.72847656 -0.00523437 9.57023437 -0.00265625 10.4375 0 C11.59668945 0.00338379 11.59668945 0.00338379 12.77929688 0.00683594 C14.71875 0.265625 14.71875 0.265625 16.71875 2.265625 C16.91840373 4.89502696 16.9985911 7.41682663 16.984375 10.046875 C16.98628845 10.81616333 16.9882019 11.58545166 16.99017334 12.37805176 C16.99153508 14.0054558 16.98783939 15.6328707 16.97949219 17.26025391 C16.96879221 19.75578131 16.97938751 22.25058882 16.9921875 24.74609375 C16.9908659 26.32552243 16.9883035 27.90495066 16.984375 29.484375 C16.98842346 30.2333606 16.99247192 30.98234619 16.99664307 31.75402832 C16.94867243 37.03570257 16.94867243 37.03570257 14.71875 39.265625 C12.77929687 39.52441406 12.77929687 39.52441406 10.4375 39.53125 C9.59574219 39.53382813 8.75398438 39.53640625 7.88671875 39.5390625 C7.00628906 39.53132813 6.12585938 39.52359375 5.21875 39.515625 C4.33832031 39.52335937 3.45789063 39.53109375 2.55078125 39.5390625 C1.70902344 39.53648437 0.86726563 39.53390625 0 39.53125 C-0.77279297 39.52899414 -1.54558594 39.52673828 -2.34179688 39.52441406 C-4.28125 39.265625 -4.28125 39.265625 -6.28125 37.265625 C-6.48090373 34.63622304 -6.5610911 32.11442337 -6.546875 29.484375 C-6.54878845 28.71508667 -6.5507019 27.94579834 -6.55267334 27.15319824 C-6.55403508 25.5257942 -6.55033939 23.8983793 -6.54199219 22.27099609 C-6.53129221 19.77546869 -6.54188751 17.28066118 -6.5546875 14.78515625 C-6.5533659 13.20572757 -6.5508035 11.62629934 -6.546875 10.046875 C-6.55092346 9.2978894 -6.55497192 8.54890381 -6.55914307 7.77722168 C-6.50789781 2.13500474 -5.83702574 0.01703886 0 0 Z " fill="#FBFDFE" transform="translate(306.28125,142.734375)"/>
<path d="M0 0 C1.20560326 -0.00929787 1.20560326 -0.00929787 2.43556213 -0.01878357 C4.13256623 -0.02587574 5.82963999 -0.02271815 7.52661133 -0.01000977 C10.11735743 0.00384449 12.70448149 -0.03020312 15.29492188 -0.06835938 C16.94661546 -0.06931076 18.59831356 -0.06745071 20.25 -0.0625 C21.40646278 -0.08238731 21.40646278 -0.08238731 22.58628845 -0.10267639 C26.59058704 -0.0336898 28.49749981 0.41789984 31.71118164 2.87915039 C33.69140625 5.56640625 33.69140625 5.56640625 33.81640625 9.19140625 C32.69140625 12.56640625 32.69140625 12.56640625 30.63500977 14.25024414 C26.88462233 15.92714044 23.5019185 16.0158055 19.46875 16 C18.29500572 16.00786278 18.29500572 16.00786278 17.09754944 16.0158844 C15.44940372 16.02228678 13.8012122 16.02099074 12.15307617 16.01245117 C9.6331266 16.00392054 7.11543018 16.0327569 4.59570312 16.06445312 C2.99088609 16.06606484 1.38606506 16.06548817 -0.21875 16.0625 C-1.34543846 16.07935097 -1.34543846 16.07935097 -2.49488831 16.09654236 C-5.96143864 16.05036993 -7.95222754 15.82741329 -10.78295898 13.75415039 C-13.01975977 10.54660169 -12.85342671 8.38023696 -12.30859375 4.56640625 C-9.06266573 -0.12087524 -5.28956291 -0.03393992 0 0 Z " fill="#90DFE7" transform="translate(411.30859375,262.43359375)"/>
<path d="M0 0 C1.20560326 -0.00929787 1.20560326 -0.00929787 2.43556213 -0.01878357 C4.13256623 -0.02587574 5.82963999 -0.02271815 7.52661133 -0.01000977 C10.11735743 0.00384449 12.70448149 -0.03020312 15.29492188 -0.06835938 C16.94661546 -0.06931076 18.59831356 -0.06745071 20.25 -0.0625 C21.40646278 -0.08238731 21.40646278 -0.08238731 22.58628845 -0.10267639 C26.59058704 -0.0336898 28.49749981 0.41789984 31.71118164 2.87915039 C33.69140625 5.56640625 33.69140625 5.56640625 33.81640625 9.19140625 C32.69140625 12.56640625 32.69140625 12.56640625 30.63500977 14.25024414 C26.88462233 15.92714044 23.5019185 16.0158055 19.46875 16 C18.29500572 16.00786278 18.29500572 16.00786278 17.09754944 16.0158844 C15.44940372 16.02228678 13.8012122 16.02099074 12.15307617 16.01245117 C9.6331266 16.00392054 7.11543018 16.0327569 4.59570312 16.06445312 C2.99088609 16.06606484 1.38606506 16.06548817 -0.21875 16.0625 C-1.34543846 16.07935097 -1.34543846 16.07935097 -2.49488831 16.09654236 C-5.96143864 16.05036993 -7.95222754 15.82741329 -10.78295898 13.75415039 C-13.01975977 10.54660169 -12.85342671 8.38023696 -12.30859375 4.56640625 C-9.06266573 -0.12087524 -5.28956291 -0.03393992 0 0 Z " fill="#90DFE7" transform="translate(411.30859375,180.43359375)"/>
<path d="M0 0 C0.886875 -0.00257813 1.77375 -0.00515625 2.6875 -0.0078125 C4.0796875 0.00378906 4.0796875 0.00378906 5.5 0.015625 C6.428125 0.00789063 7.35625 0.00015625 8.3125 -0.0078125 C9.6428125 -0.00394531 9.6428125 -0.00394531 11 0 C11.8146875 0.00225586 12.629375 0.00451172 13.46875 0.00683594 C15.5 0.265625 15.5 0.265625 17.5 2.265625 C17.75878906 4.296875 17.75878906 4.296875 17.765625 6.765625 C17.76949219 8.0959375 17.76949219 8.0959375 17.7734375 9.453125 C17.76570313 10.38125 17.75796875 11.309375 17.75 12.265625 C17.75773437 13.19375 17.76546875 14.121875 17.7734375 15.078125 C17.77085937 15.965 17.76828125 16.851875 17.765625 17.765625 C17.76336914 18.5803125 17.76111328 19.395 17.75878906 20.234375 C17.5 22.265625 17.5 22.265625 15.5 24.265625 C13.46875 24.52441406 13.46875 24.52441406 11 24.53125 C10.113125 24.53382813 9.22625 24.53640625 8.3125 24.5390625 C7.384375 24.53132813 6.45625 24.52359375 5.5 24.515625 C4.1078125 24.52722656 4.1078125 24.52722656 2.6875 24.5390625 C1.3571875 24.53519531 1.3571875 24.53519531 0 24.53125 C-0.8146875 24.52899414 -1.629375 24.52673828 -2.46875 24.52441406 C-4.5 24.265625 -4.5 24.265625 -6.5 22.265625 C-6.75878906 20.234375 -6.75878906 20.234375 -6.765625 17.765625 C-6.76820313 16.87875 -6.77078125 15.991875 -6.7734375 15.078125 C-6.76183594 13.6859375 -6.76183594 13.6859375 -6.75 12.265625 C-6.75773437 11.3375 -6.76546875 10.409375 -6.7734375 9.453125 C-6.77085937 8.56625 -6.76828125 7.679375 -6.765625 6.765625 C-6.76336914 5.9509375 -6.76111328 5.13625 -6.75878906 4.296875 C-6.21708282 0.04499205 -3.6638033 0.01014502 0 0 Z " fill="#8EDBE5" transform="translate(469.5,347.734375)"/>
</svg>
